<?xml version="1.0" encoding="utf-8"?>
<!-- Generator: Adobe Illustrator 26.4.1, SVG Export Plug-In . SVG Version: 6.00 Build 0)  -->
<svg version="1.1" id="레이어_1" xmlns="http://www.w3.org/2000/svg" xmlns:xlink="http://www.w3.org/1999/xlink" x="0px"
	 y="0px" viewBox="0 0 512 512" style="enable-background:new 0 0 512 512;" xml:space="preserve">
<style type="text/css">
	.st0{fill:#FFFFFF;}
</style>
<path class="st0" d="M451,512H61c-33.7,0-61-27.3-61-61V61C0,27.3,27.3,0,61,0H451c33.7,0,61,27.3,61,61V451
	C512,484.7,484.7,512,451,512z"/>
<g>
	<path d="M50.9,157.4h39v16.4h-6v44.8h6V235h-39v-16.4h5.1v-16.5H41.1v16.5h5.1V235h-39v-16.4h6v-44.8h-6v-16.4h39v16.4h-5.1V189h15
		v-15.2H51v-16.4H50.9z"/>
	<path d="M132,218.6h6l-1.7-7.9h-13.4l-1.7,7.9h6V235H93.2v-16.4h4l16.9-61.2h36.3l16.9,61.2h4V235h-39L132,218.6L132,218.6z
		 M125.1,200.2h9.2l-4.1-19.9h-0.9L125.1,200.2z"/>
	<path d="M248.2,173.8l-15.7,20.2l17.1,24.8h4v16.4h-29.7l-15.7-27.5V235h-33.9v-16.4h6v-44.8h-6v-16.4h33.9v26.8l18.3-26.8h25.7
		v16.4H248.2z"/>
	<path d="M327.7,207.2c0,5.4-0.7,9.9-2.2,13.6c-1.5,3.7-3.7,6.7-6.5,9c-2.8,2.4-6.1,4-10.1,5.1c-4,1.1-8.4,1.5-13.2,1.5
		c-5,0-9.4-0.5-13.6-1.5c-4-1.1-7.4-2.7-10.3-5.1c-2.8-2.4-5.1-5.3-6.6-9c-1.5-3.7-2.4-8.3-2.4-13.6v-33.4h-6v-16.4h38.1v16.4h-4
		v38.5c0,2.2,0.5,3.9,1.4,4.8c0.9,0.9,2.4,1.5,4.4,1.5c1.9,0,3.4-0.5,4.4-1.5c0.9-0.9,1.4-2.6,1.4-4.8v-38.5h-4v-16.4h35.2v16.4h-6
		L327.7,207.2L327.7,207.2z"/>
	<path d="M393.5,157.4h34.9v16.4h-6V235h-28.1l-29.1-45.1v28.7h6V235h-34.9v-16.4h6v-44.8h-6v-16.4h37l26.2,40.1v-23.7h-6V157.4z"/>
	<path d="M465.7,218.6h6l-1.7-7.9h-13.4l-1.7,7.9h6V235h-34.1v-16.4h4l16.9-61.2h36.3l16.9,61.2h4V235h-39.2v-16.4H465.7z
		 M458.8,200.2h9.2l-4.1-19.9h-0.9L458.8,200.2z"/>
	<path d="M28.6,277h47.7l11.3,34.2l11-34.2h46v16.4h-6v44.8h6v16.4h-39.9v-16.4h6v-39.4l-19.8,55.8H80.1l-22.5-55.9v39.6h6v16.4h-35
		v-16.4h6v-44.8h-6L28.6,277L28.6,277z"/>
	<path d="M186.9,338.2h6l-1.7-7.9h-13.4l-1.7,7.9h6v16.4h-34.1v-16.4h4l16.9-61.2h36.3l16.9,61.2h4v16.4h-39L186.9,338.2
		L186.9,338.2z M179.8,319.8h9.2l-4.1-19.9h-0.9L179.8,319.8z"/>
	<path d="M213.6,277h75v24.2h-17.1v-7.9h-6.4v44.8h7v16.4h-41.9v-16.4h7v-44.8h-6.4v7.9h-17.1L213.6,277L213.6,277z"/>
	<path d="M315.6,338.2h6l-1.7-7.9h-13.4l-1.7,7.9h6v16.4h-34.1v-16.4h4l16.9-61.2h36.2l16.9,61.2h4v16.4h-39L315.6,338.2
		L315.6,338.2z M308.6,319.8h9.2l-4.1-19.9h-0.9L308.6,319.8z"/>
	<path d="M342.5,277h75v24.2h-17.1v-7.9H394v44.8h7v16.4h-41.9v-16.4h7v-44.8h-6.4v7.9h-17.1L342.5,277L342.5,277z"/>
	<path d="M444.4,338.2h6l-1.7-7.9h-13.4l-1.7,7.9h6v16.4h-34.1v-16.4h4l16.9-61.2h36.3l16.9,61.2h4v16.4h-39L444.4,338.2
		L444.4,338.2z M437.3,319.8h9.2l-4.1-19.9h-0.9L437.3,319.8z"/>
</g>
</svg>
