<?xml version="1.0" encoding="utf-8"?>
<!-- Generator: Adobe Illustrator 26.4.1, SVG Export Plug-In . SVG Version: 6.00 Build 0)  -->
<svg version="1.1" id="레이어_1" xmlns="http://www.w3.org/2000/svg" xmlns:xlink="http://www.w3.org/1999/xlink" x="0px"
	 y="0px" viewBox="0 0 56 56" style="enable-background:new 0 0 56 56;" xml:space="preserve">
<style type="text/css">
	.st0{fill-rule:evenodd;clip-rule:evenodd;fill:#FFEB00;}
	.st1{fill-rule:evenodd;clip-rule:evenodd;}
</style>
<g>
	<g>
		<path class="st0" d="M44.3,39.7H11.7C5.3,39.7,0,34.4,0,28s5.3-11.7,11.7-11.7h32.7C50.7,16.3,56,21.6,56,28S50.7,39.7,44.3,39.7"
			/>
	</g>
	<g>
		<g>
			<g>
				<path class="st1" d="M13.1,21.9c-3.6,0-6.4,2.2-6.4,5c0,1.7,1.2,3.3,3,4.2L9,33.4v0.2h0.2h0.2l2.6-1.7c0.3,0,0.8,0.2,1.1,0.2
					c3.6,0,6.4-2.3,6.4-5C19.4,24.1,16.6,21.9,13.1,21.9z"/>
			</g>
		</g>
		<path d="M24.9,31.1v3.3h-2.3v-12h1.6l0.3,0.8c0.5-0.5,1.2-1.1,2.5-1.1c2.3,0,3.3,1.7,3.3,4.5s-1.7,4.7-4,4.7
			C25.7,31.3,25.4,31.3,24.9,31.1z M24.9,24.3v5.3c0.2,0,0.5,0,0.8,0c1.7,0,2.3-1.1,2.3-3c0-1.6-0.5-2.5-1.7-2.5
			C25.7,24,25.2,24.1,24.9,24.3z"/>
		<path d="M35.2,25.8h1.2v-0.3c0-0.9-0.6-1.4-1.6-1.4c-0.8,0-1.6,0.2-2.3,0.6l-0.6-1.6c0.8-0.6,2-0.9,3.3-0.9c2.2,0,3.4,1.1,3.4,3.4
			v5.4H37l-0.2-0.8c-0.9,0.6-1.9,0.9-2.5,0.9c-1.7,0-2.6-1.1-2.6-2.8C31.6,26.8,32.8,25.8,35.2,25.8z M36.6,28.8v-1.6h-1.1
			c-1.2,0-1.9,0.5-1.9,1.2c0,0.6,0.3,0.9,1.1,0.9C35.3,29.6,36.1,29.2,36.6,28.8z"/>
		<path d="M45.7,30.2c-0.8,2.2-1.7,3.7-3.3,4.5l-1.4-1.2c0.8-0.8,1.4-1.4,1.9-2.3l-3.1-8.4l2.3-0.6l2,6.8l1.9-6.8l2.3,0.6L45.7,30.2
			z"/>
	</g>
</g>
</svg>
