<?xml version="1.0" encoding="utf-8"?>
<!-- Generator: Adobe Illustrator 26.4.1, SVG Export Plug-In . SVG Version: 6.00 Build 0)  -->
<svg version="1.1" id="레이어_1" xmlns="http://www.w3.org/2000/svg" xmlns:xlink="http://www.w3.org/1999/xlink" x="0px"
	 y="0px" viewBox="0 0 56 56" style="enable-background:new 0 0 56 56;" xml:space="preserve">
<style type="text/css">
	.st0{fill:#333333;}
	.st1{fill:#00C73C;}
	.st2{fill:#FFFFFF;}
</style>
<g>
	<g>
		<g>
			<path class="st0" d="M28.3,21.7h4.5c0.7,0,1.3,0.1,1.8,0.3c0.5,0.2,1,0.4,1.3,0.8c0.3,0.3,0.6,0.7,0.8,1.1
				c0.2,0.4,0.3,0.9,0.3,1.4v0.4c0,0.5-0.1,1-0.3,1.4c-0.2,0.4-0.4,0.8-0.8,1.2c-0.3,0.3-0.8,0.6-1.3,0.8c-0.5,0.2-1.1,0.3-1.8,0.3
				H30v4.9h-1.7V21.7z M30,23.2v4.7h2.5c1.8,0,2.7-0.8,2.7-2.3v-0.3c0-0.7-0.2-1.3-0.7-1.6c-0.4-0.3-1.1-0.5-1.9-0.5H30z"/>
			<path class="st0" d="M41.4,34.4c-1,0-1.7-0.2-2.3-0.7c-0.6-0.5-0.8-1.1-0.8-2v-0.5c0-0.8,0.3-1.5,0.8-2c0.5-0.5,1.4-0.8,2.7-0.8
				h2.4V28c0-0.6-0.2-1.1-0.5-1.4c-0.3-0.3-0.8-0.5-1.5-0.5c-0.6,0-1,0.1-1.5,0.3c-0.4,0.2-0.8,0.4-1.3,0.7l-0.8-1.3
				c0.5-0.3,1-0.6,1.6-0.8c0.6-0.2,1.3-0.4,2-0.4c0.5,0,1,0.1,1.5,0.2c0.4,0.1,0.8,0.3,1.1,0.6c0.3,0.3,0.6,0.6,0.8,1
				c0.2,0.4,0.3,0.8,0.3,1.3v6.7h-1.6v-1.2h0c-0.1,0.2-0.2,0.3-0.4,0.5c-0.2,0.1-0.3,0.3-0.5,0.4c-0.3,0.1-0.5,0.2-0.8,0.3
				C42.2,34.4,41.8,34.4,41.4,34.4z M44.1,29.9h-2.4c-0.7,0-1.1,0.1-1.4,0.4c-0.3,0.3-0.4,0.6-0.4,1.1v0.2c0,0.5,0.2,0.8,0.5,1
				c0.3,0.2,0.7,0.3,1.2,0.3c0.4,0,0.8,0,1.1-0.1c0.3-0.1,0.6-0.2,0.8-0.4c0.2-0.2,0.4-0.4,0.5-0.6c0.1-0.2,0.1-0.5,0.1-0.9V29.9z"
				/>
			<path class="st0" d="M51.7,32.4l2.5-7.6H56l-5,13.5l-1.5-0.5l1.2-3.3l-3.5-9.7h1.8L51.7,32.4L51.7,32.4z"/>
		</g>
		<g>
			<rect y="17" class="st1" width="22" height="22"/>
			<polygon class="st2" points="12.8,33 9.2,27.8 9.2,33 5.5,33 5.5,23 9.3,23 12.8,28.2 12.8,23 16.5,23 16.5,33 			"/>
		</g>
	</g>
</g>
</svg>
